<?xml version="1.0" encoding="iso-8859-1"?>
<!-- Generator: Adobe Illustrator 19.0.0, SVG Export Plug-In . SVG Version: 6.00 Build 0)  -->
<svg version="1.1" class="icon" id="Capa_1" xmlns="http://www.w3.org/2000/svg" xmlns:xlink="http://www.w3.org/1999/xlink" x="0px" y="0px"
	 viewBox="0 0 512 512" style="enable-background:new 0 0 512 512;" xml:space="preserve">
<g>
	<g>
		<g>
			<path d="M256,0C114.615,0,0,114.615,0,256s114.615,256,256,256s256-114.615,256-256S397.385,0,256,0z M256,480
				C132.288,480,32,379.712,32,256S132.288,32,256,32s224,100.288,224,224S379.712,480,256,480z"/>
			<path d="M400,160h-32c0,17.673-14.327,32-32,32c-17.673,0-32-14.327-32-32h-32c0,35.346,28.654,64,64,64
				C371.346,224,400,195.346,400,160z"/>
			<path d="M240,160h-32c0,17.673-14.327,32-32,32s-32-14.327-32-32h-32c0,35.346,28.654,64,64,64C211.346,224,240,195.346,240,160z
				"/>
			<path d="M368.8,240c-5.037-0.255-9.899,1.88-13.12,5.76c-8.8,10.56-51.68,64-35.52,98.88c4.96,10.72,17.44,23.36,48,23.36
				c16.015,1.752,31.562-6.084,39.68-20c17.28-32-18.88-89.6-26.4-100.8C378.624,242.913,373.924,240.235,368.8,240z M379.36,332.8
				c-1.6,2.88-9.12,3.2-11.36,3.2c-12.16,0-17.76-2.72-18.88-4.96c-3.52-7.36,5.12-27.04,17.44-45.92
				C376.64,304.96,384,325.6,379.36,332.8z"/>
			<rect x="160" y="320" width="128" height="32"/>
		</g>
	</g>
</g>
<g>
</g>
<g>
</g>
<g>
</g>
<g>
</g>
<g>
</g>
<g>
</g>
<g>
</g>
<g>
</g>
<g>
</g>
<g>
</g>
<g>
</g>
<g>
</g>
<g>
</g>
<g>
</g>
<g>
</g>
</svg>
