<?xml version="1.0" encoding="iso-8859-1"?>
<!-- Generator: Adobe Illustrator 19.0.0, SVG Export Plug-In . SVG Version: 6.00 Build 0)  -->
<svg version="1.1" class="icon" id="Capa_1" xmlns="http://www.w3.org/2000/svg" xmlns:xlink="http://www.w3.org/1999/xlink" x="0px" y="0px"
	 viewBox="0 0 512 512" style="enable-background:new 0 0 512 512;" xml:space="preserve">
<g>
	<g>
		<g>
			<path d="M256,0C114.615,0,0,114.615,0,256s114.615,256,256,256s256-114.615,256-256S397.385,0,256,0z M256,480
				C132.288,480,32,379.712,32,256S132.288,32,256,32s224,100.288,224,224S379.712,480,256,480z"/>
			<path d="M176,176c17.673,0,32,14.327,32,32h32c0-35.346-28.654-64-64-64c-35.346,0-64,28.654-64,64h32
				C144,190.327,158.327,176,176,176z"/>
			<path d="M336,144c-35.346,0-64,28.654-64,64h32c0-17.673,14.327-32,32-32c17.673,0,32,14.327,32,32h32
				C400,172.654,371.346,144,336,144z"/>
			<path d="M368,256H144c-8.837,0-16,7.163-16,16c0,70.692,57.308,128,128,128s128-57.308,128-128C384,263.163,376.837,256,368,256z
				 M256,368c-46.869,0.031-86.909-33.787-94.72-80h189.44C342.909,334.213,302.869,368.031,256,368z"/>
		</g>
	</g>
</g>
<g>
</g>
<g>
</g>
<g>
</g>
<g>
</g>
<g>
</g>
<g>
</g>
<g>
</g>
<g>
</g>
<g>
</g>
<g>
</g>
<g>
</g>
<g>
</g>
<g>
</g>
<g>
</g>
<g>
</g>
</svg>
